<svg xmlns="http://www.w3.org/2000/svg" id="SvgjsSvg295772" width="4096" height="1292.8132784236163" version="1.1" xmlns:xlink="http://www.w3.org/1999/xlink" xmlns:svgjs="http://svgjs.com/svgjs"><defs id="SvgjsDefs295773"></defs><g id="SvgjsG295774" transform="translate(328, 327.99999999999994) scale(34.4)" opacity="1"><defs id="SvgjsDefs72493"></defs><g id="SvgjsG72494" transform="scale(0.2178174689610107)" opacity="1"><g id="SvgjsG72495" class="ZOWiXafgl" transform="translate(7.105427357601002e-15, -8.025690361979738) scale(1.010410469845114)" light-content="false" non-strokable="false" fill="#ff9831"><path d="M40.832 80.635l-1.521-8.391-32.226-6.171 9.788-51.122 45.945 8.796 12.042-2.184.327-1.703L12.948 7.943 0 75.581l62.239 11.915 2.13-11.129z"></path><path d="M87.715 12.99L25.361 24.296l12.287 67.76L100 80.751 87.715 12.99zM31.547 29.417l52.171-9.459 9.288 51.218-52.174 9.459-9.285-51.218z"></path></g><g id="SvgjsG72496" class="text" transform="translate(202.05717590989764, 67.11115764502426) scale(1)" light-content="false" fill="#000000"><path d="M-79.75 -10.24C-79.23 -10.14 -78.79 -9.98 -78.43 -9.78L-78.94 -8.56C-79.47 -8.73 -79.86 -8.85 -80.11 -8.9C-80.37 -8.96 -80.7 -8.98 -81.11 -8.98C-81.69 -8.98 -82.21 -8.82 -82.68 -8.5C-83.14 -8.17 -83.51 -7.71 -83.78 -7.12C-84.05 -6.52 -84.19 -5.83 -84.19 -5.05C-84.19 -4.34 -84.07 -3.7 -83.83 -3.12C-83.6 -2.54 -83.26 -2.08 -82.81 -1.73C-82.37 -1.39 -81.84 -1.21 -81.23 -1.21C-80.45 -1.21 -79.71 -1.37 -79 -1.68L-78.35 -0.42C-78.71 -0.24 -79.16 -0.09 -79.69 0.03C-80.23 0.15 -80.72 0.21 -81.16 0.21C-82.18 0.21 -83.05 -0.02 -83.77 -0.49C-84.49 -0.95 -85.03 -1.58 -85.39 -2.38C-85.76 -3.17 -85.94 -4.06 -85.94 -5.04C-85.94 -6.07 -85.74 -6.99 -85.34 -7.81C-84.94 -8.62 -84.37 -9.26 -83.64 -9.72C-82.9 -10.18 -82.05 -10.41 -81.07 -10.41C-80.71 -10.41 -80.27 -10.35 -79.75 -10.24Z M-75.55 -4.63L-75.55 0L-77.23 0L-77.23 -7.27L-76.33 -7.27L-75.77 -6.07C-75.41 -6.37 -75 -6.65 -74.53 -6.9C-74.07 -7.15 -73.66 -7.27 -73.31 -7.27L-72.97 -5.92C-73.33 -5.92 -73.75 -5.8 -74.23 -5.55C-74.71 -5.3 -75.15 -4.99 -75.55 -4.63Z M-65.59 -3.69L-65.59 -3.19L-70.63 -3.19C-70.48 -1.9 -69.7 -1.24 -68.3 -1.24C-67.91 -1.24 -67.57 -1.3 -67.26 -1.4C-66.95 -1.51 -66.59 -1.67 -66.16 -1.89L-65.65 -0.66C-66.46 -0.1 -67.35 0.18 -68.33 0.18C-69.65 0.18 -70.66 -0.16 -71.35 -0.85C-72.05 -1.53 -72.4 -2.46 -72.4 -3.64C-72.4 -4.4 -72.25 -5.07 -71.97 -5.65C-71.68 -6.22 -71.28 -6.67 -70.74 -6.99C-70.2 -7.31 -69.57 -7.47 -68.84 -7.47C-67.77 -7.47 -66.96 -7.12 -66.41 -6.4C-65.86 -5.7 -65.59 -4.79 -65.59 -3.69ZM-70.05 -5.58C-70.34 -5.28 -70.53 -4.86 -70.6 -4.32L-67.21 -4.32C-67.3 -4.88 -67.48 -5.3 -67.76 -5.59C-68.04 -5.89 -68.42 -6.03 -68.89 -6.03C-69.37 -6.03 -69.75 -5.88 -70.05 -5.58Z M-61.54 -5.94C-62.2 -5.94 -62.9 -5.77 -63.64 -5.44L-64.1 -6.82C-63.84 -7 -63.44 -7.15 -62.89 -7.27C-62.35 -7.4 -61.91 -7.47 -61.57 -7.47C-61.01 -7.47 -60.49 -7.36 -60.03 -7.12C-59.56 -6.9 -59.2 -6.58 -58.93 -6.19C-58.66 -5.79 -58.52 -5.35 -58.52 -4.86L-58.52 0L-59.65 0L-59.9 -0.73C-60.18 -0.46 -60.5 -0.24 -60.86 -0.07C-61.22 0.09 -61.58 0.18 -61.94 0.18C-62.78 0.18 -63.42 -0.03 -63.85 -0.45C-64.29 -0.87 -64.51 -1.43 -64.51 -2.13C-64.51 -2.86 -64.26 -3.42 -63.76 -3.82C-63.27 -4.22 -62.62 -4.42 -61.81 -4.42L-60.22 -4.42C-60.24 -5.44 -60.68 -5.94 -61.54 -5.94ZM-62.71 -2.96C-62.93 -2.74 -63.04 -2.46 -63.04 -2.13C-63.04 -1.87 -62.94 -1.64 -62.75 -1.45C-62.56 -1.25 -62.3 -1.15 -61.97 -1.15C-61.66 -1.15 -61.35 -1.23 -61.04 -1.38C-60.73 -1.53 -60.45 -1.73 -60.2 -1.99L-60.2 -3.3L-61.84 -3.3C-62.21 -3.3 -62.5 -3.19 -62.71 -2.96Z M-54.83 -7.21L-53.51 -7.21L-53 -5.92L-54.83 -5.92L-54.83 -2.46C-54.83 -2.07 -54.75 -1.76 -54.57 -1.52C-54.39 -1.29 -54.13 -1.17 -53.78 -1.17C-53.55 -1.17 -53.3 -1.23 -53.03 -1.35L-52.57 -0.1C-52.72 0 -52.93 0.08 -53.19 0.16C-53.45 0.23 -53.7 0.27 -53.92 0.27C-54.73 0.27 -55.36 0.06 -55.82 -0.36C-56.28 -0.78 -56.51 -1.38 -56.51 -2.17L-56.51 -5.92L-57.52 -5.92L-57.52 -7.21L-56.51 -7.21L-56.51 -9L-54.83 -9.33Z M-45.08 -3.69L-45.08 -3.19L-50.12 -3.19C-49.97 -1.9 -49.2 -1.24 -47.8 -1.24C-47.41 -1.24 -47.06 -1.3 -46.75 -1.4C-46.45 -1.51 -46.08 -1.67 -45.65 -1.89L-45.14 -0.66C-45.95 -0.1 -46.85 0.18 -47.83 0.18C-49.15 0.18 -50.16 -0.16 -50.85 -0.85C-51.54 -1.53 -51.89 -2.46 -51.89 -3.64C-51.89 -4.4 -51.75 -5.07 -51.46 -5.65C-51.18 -6.22 -50.77 -6.67 -50.23 -6.99C-49.7 -7.31 -49.07 -7.47 -48.34 -7.47C-47.27 -7.47 -46.46 -7.12 -45.91 -6.4C-45.36 -5.7 -45.08 -4.79 -45.08 -3.69ZM-49.54 -5.58C-49.84 -5.28 -50.02 -4.86 -50.09 -4.32L-46.7 -4.32C-46.79 -4.88 -46.98 -5.3 -47.26 -5.59C-47.54 -5.89 -47.91 -6.03 -48.38 -6.03C-48.86 -6.03 -49.25 -5.88 -49.54 -5.58Z M-36.07 0L-37.75 0L-37.75 -4.02L-41.11 -9.9L-39.46 -10.44L-36.92 -5.71L-34.3 -10.2L-32.51 -10.2L-36.05 -3.99Z M-24.89 -1.63C-24.58 -2.22 -24.43 -2.88 -24.43 -3.64C-24.43 -4.4 -24.58 -5.07 -24.88 -5.65C-25.19 -6.23 -25.63 -6.68 -26.19 -7C-26.75 -7.31 -27.42 -7.47 -28.18 -7.47C-28.94 -7.47 -29.6 -7.31 -30.17 -6.99C-30.74 -6.67 -31.18 -6.22 -31.48 -5.65C-31.79 -5.07 -31.94 -4.4 -31.94 -3.64C-31.94 -2.88 -31.79 -2.2 -31.48 -1.63C-31.18 -1.05 -30.75 -0.61 -30.19 -0.28C-29.63 0.03 -28.97 0.2 -28.21 0.2C-27.45 0.2 -26.78 0.03 -26.21 -0.28C-25.64 -0.61 -25.2 -1.05 -24.89 -1.63ZM-26.73 -1.93C-27.1 -1.48 -27.6 -1.26 -28.21 -1.26C-28.82 -1.26 -29.31 -1.48 -29.67 -1.92C-30.03 -2.36 -30.22 -2.93 -30.22 -3.64C-30.21 -4.33 -30.01 -4.9 -29.64 -5.35C-29.26 -5.8 -28.78 -6.03 -28.18 -6.03C-27.57 -6.03 -27.08 -5.81 -26.71 -5.36C-26.35 -4.92 -26.17 -4.34 -26.17 -3.63C-26.17 -2.95 -26.35 -2.38 -26.73 -1.93Z M-18.28 -2.19L-18.28 -7.27L-16.58 -7.27L-16.58 0L-17.72 0L-18.02 -0.87C-18.44 -0.53 -18.9 -0.26 -19.4 -0.06C-19.9 0.14 -20.37 0.24 -20.81 0.24C-22.41 0.24 -23.21 -0.7 -23.21 -2.59L-23.21 -7.27L-21.53 -7.27L-21.53 -2.7C-21.53 -1.69 -21.16 -1.18 -20.41 -1.18C-19.8 -1.18 -19.09 -1.52 -18.28 -2.19Z M-13.18 -4.63L-13.18 0L-14.86 0L-14.86 -7.27L-13.96 -7.27L-13.4 -6.07C-13.04 -6.37 -12.63 -6.65 -12.16 -6.9C-11.7 -7.15 -11.29 -7.27 -10.94 -7.27L-10.6 -5.92C-10.96 -5.92 -11.38 -5.8 -11.86 -5.55C-12.34 -5.3 -12.78 -4.99 -13.18 -4.63Z M0.44 -1.63C0.75 -2.22 0.91 -2.88 0.91 -3.64C0.91 -4.4 0.75 -5.07 0.45 -5.65C0.14 -6.23 -0.29 -6.68 -0.85 -7C-1.42 -7.31 -2.08 -7.47 -2.84 -7.47C-3.6 -7.47 -4.27 -7.31 -4.84 -6.99C-5.41 -6.67 -5.84 -6.22 -6.15 -5.65C-6.46 -5.07 -6.61 -4.4 -6.61 -3.64C-6.61 -2.88 -6.46 -2.2 -6.15 -1.63C-5.84 -1.05 -5.41 -0.61 -4.85 -0.28C-4.29 0.03 -3.63 0.2 -2.87 0.2C-2.11 0.2 -1.45 0.03 -0.88 -0.28C-0.31 -0.61 0.13 -1.05 0.44 -1.63ZM-1.39 -1.93C-1.77 -1.48 -2.26 -1.26 -2.87 -1.26C-3.48 -1.26 -3.97 -1.48 -4.33 -1.92C-4.7 -2.36 -4.88 -2.93 -4.88 -3.64C-4.87 -4.33 -4.68 -4.9 -4.3 -5.35C-3.93 -5.8 -3.44 -6.03 -2.84 -6.03C-2.23 -6.03 -1.75 -5.81 -1.38 -5.36C-1.01 -4.92 -0.83 -4.34 -0.83 -3.63C-0.83 -2.95 -1.02 -2.38 -1.39 -1.93Z M9.5 0L8.03 0L6.55 -4.83L5.14 0L3.65 0L1.46 -7L3.1 -7.53L4.42 -2.58L5.66 -7.27L7.49 -7.27L8.8 -2.58L10.04 -7.27L11.8 -7.27Z M14.5 -5.08L14.5 0L12.82 0L12.82 -7.27L13.94 -7.27L14.24 -6.4C14.66 -6.74 15.12 -7.01 15.62 -7.21C16.12 -7.42 16.59 -7.51 17.03 -7.51C17.88 -7.51 18.5 -7.26 18.88 -6.76C19.26 -6.25 19.45 -5.56 19.45 -4.68L19.45 0L17.75 0L17.75 -4.57C17.75 -5.59 17.38 -6.09 16.63 -6.09C16.02 -6.09 15.31 -5.75 14.5 -5.08Z M29.93 -3.27L29.29 -3.18L26.66 -6.73L26.66 0L24.98 0L24.98 -10.2L26.03 -10.2L29.54 -5.32L32.83 -10.2L33.86 -10.2L33.86 0L32.15 0L32.15 -6.49Z M42.4 -3.69L42.4 -3.19L37.36 -3.19C37.51 -1.9 38.28 -1.24 39.68 -1.24C40.07 -1.24 40.42 -1.3 40.73 -1.4C41.03 -1.51 41.4 -1.67 41.83 -1.89L42.34 -0.66C41.53 -0.1 40.63 0.18 39.65 0.18C38.33 0.18 37.32 -0.16 36.63 -0.85C35.94 -1.53 35.59 -2.46 35.59 -3.64C35.59 -4.4 35.73 -5.07 36.02 -5.65C36.3 -6.22 36.71 -6.67 37.24 -6.99C37.78 -7.31 38.41 -7.47 39.14 -7.47C40.21 -7.47 41.02 -7.12 41.57 -6.4C42.12 -5.7 42.4 -4.79 42.4 -3.69ZM37.94 -5.58C37.64 -5.28 37.46 -4.86 37.39 -4.32L40.78 -4.32C40.69 -4.88 40.5 -5.3 40.22 -5.59C39.94 -5.89 39.57 -6.03 39.1 -6.03C38.62 -6.03 38.23 -5.88 37.94 -5.58Z M54.17 -6.81C53.79 -7.28 53.21 -7.51 52.42 -7.51C52.02 -7.51 51.58 -7.42 51.11 -7.21C50.63 -7.01 50.18 -6.75 49.76 -6.42C49.41 -7.15 48.75 -7.51 47.77 -7.51C47.37 -7.51 46.93 -7.42 46.45 -7.21C45.97 -7.01 45.52 -6.74 45.1 -6.4L44.8 -7.27L43.67 -7.27L43.67 0L45.35 0L45.35 -5.08C46.16 -5.75 46.83 -6.09 47.36 -6.09C47.73 -6.09 47.99 -5.96 48.15 -5.71C48.31 -5.45 48.38 -5.08 48.38 -4.57L48.38 0L50.08 0L50.08 -4.83C50.08 -4.97 50.07 -5.08 50.06 -5.14C50.43 -5.44 50.78 -5.66 51.1 -5.83C51.42 -6.01 51.72 -6.09 52.01 -6.09C52.38 -6.09 52.65 -5.96 52.8 -5.71C52.95 -5.45 53.03 -5.08 53.03 -4.57L53.03 0L54.73 0L54.73 -4.83C54.73 -5.68 54.54 -6.34 54.17 -6.81Z M62.99 -1.63C63.3 -2.22 63.46 -2.88 63.46 -3.64C63.46 -4.4 63.3 -5.07 63 -5.65C62.69 -6.23 62.26 -6.68 61.69 -7C61.13 -7.31 60.47 -7.47 59.71 -7.47C58.95 -7.47 58.28 -7.31 57.71 -6.99C57.14 -6.67 56.71 -6.22 56.4 -5.65C56.09 -5.07 55.94 -4.4 55.94 -3.64C55.94 -2.88 56.09 -2.2 56.4 -1.63C56.71 -1.05 57.14 -0.61 57.7 -0.28C58.26 0.03 58.92 0.2 59.68 0.2C60.44 0.2 61.1 0.03 61.67 -0.28C62.24 -0.61 62.68 -1.05 62.99 -1.63ZM61.15 -1.93C60.78 -1.48 60.29 -1.26 59.68 -1.26C59.07 -1.26 58.58 -1.48 58.22 -1.92C57.85 -2.36 57.67 -2.93 57.67 -3.64C57.68 -4.33 57.87 -4.9 58.25 -5.35C58.62 -5.8 59.11 -6.03 59.71 -6.03C60.32 -6.03 60.8 -5.81 61.17 -5.36C61.54 -4.92 61.72 -4.34 61.72 -3.63C61.72 -2.95 61.53 -2.38 61.15 -1.93Z M66.41 -4.63L66.41 0L64.73 0L64.73 -7.27L65.63 -7.27L66.19 -6.07C66.55 -6.37 66.96 -6.65 67.43 -6.9C67.89 -7.15 68.3 -7.27 68.65 -7.27L68.99 -5.92C68.63 -5.92 68.21 -5.8 67.73 -5.55C67.25 -5.3 66.81 -4.99 66.41 -4.63Z M71.55 -8.74C71.35 -8.54 71.12 -8.44 70.84 -8.44C70.56 -8.44 70.33 -8.54 70.14 -8.74C69.96 -8.93 69.86 -9.17 69.86 -9.45C69.86 -9.72 69.96 -9.95 70.15 -10.15C70.34 -10.34 70.57 -10.44 70.84 -10.44C71.12 -10.44 71.35 -10.34 71.55 -10.15C71.74 -9.95 71.84 -9.72 71.84 -9.45C71.84 -9.17 71.74 -8.93 71.55 -8.74ZM71.71 0L70.01 0L70.01 -7.27L71.71 -7.27Z M79.79 -3.69L79.79 -3.19L74.75 -3.19C74.9 -1.9 75.68 -1.24 77.08 -1.24C77.47 -1.24 77.81 -1.3 78.12 -1.4C78.43 -1.51 78.79 -1.67 79.22 -1.89L79.73 -0.66C78.92 -0.1 78.03 0.18 77.05 0.18C75.73 0.18 74.72 -0.16 74.02 -0.85C73.33 -1.53 72.98 -2.46 72.98 -3.64C72.98 -4.4 73.13 -5.07 73.41 -5.65C73.69 -6.22 74.1 -6.67 74.64 -6.99C75.18 -7.31 75.81 -7.47 76.54 -7.47C77.61 -7.47 78.42 -7.12 78.97 -6.4C79.52 -5.7 79.79 -4.79 79.79 -3.69ZM75.33 -5.58C75.04 -5.28 74.85 -4.86 74.78 -4.32L78.17 -4.32C78.08 -4.88 77.9 -5.3 77.62 -5.59C77.34 -5.89 76.96 -6.03 76.49 -6.03C76.01 -6.03 75.63 -5.88 75.33 -5.58Z M81.84 0.01C81.36 -0.12 80.96 -0.29 80.66 -0.51L81.17 -1.68C81.86 -1.35 82.51 -1.18 83.11 -1.18C83.49 -1.18 83.81 -1.25 84.08 -1.39C84.35 -1.54 84.49 -1.72 84.49 -1.96C84.49 -2.4 84.01 -2.78 83.05 -3.09C81.45 -3.61 80.65 -4.35 80.65 -5.31C80.65 -5.98 80.9 -6.51 81.4 -6.89C81.9 -7.28 82.58 -7.47 83.44 -7.47C83.78 -7.47 84.19 -7.4 84.66 -7.27C85.13 -7.15 85.53 -6.97 85.85 -6.75L85.33 -5.61C84.98 -5.77 84.65 -5.89 84.36 -5.98C84.07 -6.06 83.75 -6.1 83.41 -6.1C83.1 -6.1 82.84 -6.03 82.63 -5.88C82.42 -5.73 82.31 -5.54 82.31 -5.32C82.32 -5.16 82.44 -5 82.67 -4.86C82.9 -4.72 83.22 -4.58 83.63 -4.44C85.28 -3.85 86.11 -3.05 86.11 -2.04C86.11 -1.33 85.85 -0.78 85.34 -0.39C84.82 0 84.08 0.2 83.11 0.2C82.75 0.2 82.32 0.13 81.84 0.01Z"></path></g><g id="SvgjsG72497" class="text" transform="translate(386.2899648364332, 43.78365749214682) scale(1 1)" light-content="false" fill="#263958"><path d="M-44 -28.41L-45.59 -32.74C-48.17 -33.66 -50.96 -34.12 -53.97 -34.12C-55.91 -34.12 -57.7 -33.89 -59.37 -33.45C-61.03 -33.01 -62.55 -32.39 -63.93 -31.59C-65.31 -30.79 -66.54 -29.85 -67.61 -28.77C-68.69 -27.69 -69.6 -26.5 -70.33 -25.2C-71.06 -23.91 -71.62 -22.54 -72 -21.11C-72.38 -19.67 -72.58 -18.21 -72.58 -16.73C-72.58 -14.11 -72.1 -11.73 -71.14 -9.58C-70.18 -7.44 -68.84 -5.6 -67.11 -4.07C-65.39 -2.54 -63.33 -1.36 -60.93 -0.53C-58.54 0.31 -55.9 0.73 -53.01 0.73C-51.58 0.73 -50.15 0.6 -48.74 0.36C-47.33 0.12 -46.04 -0.23 -44.87 -0.68L-43 -5.45L-43.25 -5.62C-43.85 -4.95 -44.51 -4.35 -45.23 -3.83C-45.96 -3.3 -46.73 -2.86 -47.55 -2.49C-48.37 -2.13 -49.22 -1.85 -50.11 -1.66C-51 -1.47 -51.89 -1.38 -52.78 -1.38C-55.24 -1.38 -57.4 -1.81 -59.25 -2.68C-61.1 -3.55 -62.64 -4.73 -63.87 -6.25C-65.1 -7.76 -66.03 -9.55 -66.65 -11.62C-67.28 -13.69 -67.59 -15.91 -67.59 -18.3C-67.59 -20.47 -67.26 -22.4 -66.61 -24.1C-65.95 -25.8 -65.04 -27.24 -63.86 -28.41C-62.68 -29.58 -61.27 -30.47 -59.63 -31.09C-58 -31.7 -56.2 -32.01 -54.23 -32.01C-52.19 -32.01 -50.31 -31.68 -48.6 -31.01C-46.89 -30.33 -45.43 -29.44 -44.21 -28.31Z M-40.33 -6.9C-40.33 -4.56 -39.59 -2.76 -38.11 -1.49C-36.62 -0.21 -34.53 0.42 -31.81 0.42C-30.99 0.42 -30.23 0.35 -29.53 0.2C-28.84 0.05 -28.2 -0.14 -27.64 -0.39C-27.07 -0.63 -26.56 -0.9 -26.11 -1.19C-25.67 -1.49 -25.28 -1.78 -24.96 -2.06C-24.99 -1.62 -25.02 -1.25 -25.06 -0.94C-25.1 -0.62 -25.16 -0.34 -25.24 -0.09L-25.24 0L-20.07 0L-20.07 -0.09C-20.16 -0.42 -20.25 -0.83 -20.33 -1.31C-20.42 -1.79 -20.49 -2.39 -20.55 -3.11C-20.6 -3.83 -20.65 -4.68 -20.69 -5.67C-20.72 -6.67 -20.74 -7.82 -20.74 -9.15L-20.74 -16.78C-20.74 -17.84 -20.92 -18.83 -21.26 -19.76C-21.6 -20.69 -22.14 -21.5 -22.89 -22.19C-23.63 -22.89 -24.58 -23.44 -25.74 -23.83C-26.9 -24.23 -28.3 -24.43 -29.94 -24.43C-30.53 -24.43 -31.1 -24.41 -31.64 -24.37C-32.18 -24.33 -32.7 -24.27 -33.22 -24.17C-33.73 -24.08 -34.24 -23.96 -34.74 -23.81C-35.24 -23.66 -35.74 -23.47 -36.26 -23.24L-37.85 -19.94L-37.62 -19.8C-36.87 -20.37 -36.17 -20.85 -35.52 -21.22C-34.87 -21.6 -34.26 -21.89 -33.67 -22.11C-33.09 -22.33 -32.52 -22.49 -31.98 -22.58C-31.43 -22.67 -30.88 -22.72 -30.31 -22.72C-29.5 -22.72 -28.76 -22.6 -28.08 -22.36C-27.4 -22.12 -26.82 -21.75 -26.34 -21.26C-25.85 -20.77 -25.48 -20.15 -25.21 -19.4C-24.95 -18.65 -24.82 -17.76 -24.82 -16.73L-24.82 -15.54C-25.75 -15.52 -26.78 -15.47 -27.9 -15.39C-29.03 -15.3 -30.17 -15.14 -31.32 -14.92C-32.48 -14.69 -33.59 -14.38 -34.67 -13.98C-35.74 -13.58 -36.7 -13.07 -37.55 -12.43C-38.39 -11.79 -39.06 -11.01 -39.57 -10.11C-40.08 -9.2 -40.33 -8.14 -40.33 -6.9ZM-24.82 -13.71L-24.82 -9.15L-24.82 -6.68C-24.82 -5.96 -24.83 -5.3 -24.86 -4.7C-25.03 -4.34 -25.28 -3.97 -25.61 -3.59C-25.94 -3.21 -26.34 -2.86 -26.82 -2.54C-27.29 -2.22 -27.84 -1.95 -28.45 -1.74C-29.07 -1.53 -29.75 -1.43 -30.5 -1.43C-32.12 -1.43 -33.4 -1.91 -34.32 -2.88C-35.24 -3.85 -35.7 -5.25 -35.7 -7.09C-35.7 -8.53 -35.4 -9.68 -34.8 -10.54C-34.2 -11.41 -33.39 -12.07 -32.39 -12.54C-31.38 -13.01 -30.22 -13.32 -28.91 -13.47C-27.6 -13.61 -26.24 -13.7 -24.82 -13.71Z M2.42 -15.77L2.42 -9.15C2.42 -7.82 2.4 -6.67 2.36 -5.67C2.32 -4.68 2.28 -3.83 2.22 -3.11C2.17 -2.39 2.1 -1.79 2.01 -1.31C1.93 -0.83 1.84 -0.42 1.74 -0.09L1.74 0L7.15 0L7.15 -0.09C7.06 -0.42 6.97 -0.83 6.89 -1.31C6.81 -1.79 6.74 -2.39 6.68 -3.11C6.62 -3.83 6.57 -4.68 6.54 -5.67C6.51 -6.67 6.49 -7.82 6.49 -9.15L6.49 -17.11C6.49 -18.01 6.37 -18.9 6.13 -19.78C5.89 -20.67 5.5 -21.45 4.96 -22.14C4.42 -22.82 3.73 -23.38 2.88 -23.8C2.03 -24.22 0.99 -24.43 -0.22 -24.43C-1.02 -24.43 -1.83 -24.3 -2.66 -24.04C-3.48 -23.79 -4.29 -23.45 -5.09 -23.04C-5.89 -22.62 -6.65 -22.15 -7.39 -21.62C-8.14 -21.09 -8.83 -20.56 -9.47 -20.03C-9.39 -21 -9.31 -21.78 -9.24 -22.38C-9.17 -22.98 -9.08 -23.48 -8.95 -23.87L-8.95 -23.96L-14.36 -23.96L-14.36 -23.87C-14.26 -23.54 -14.17 -23.13 -14.09 -22.65C-14 -22.17 -13.93 -21.57 -13.88 -20.85C-13.82 -20.13 -13.77 -19.28 -13.74 -18.29C-13.7 -17.3 -13.68 -16.14 -13.68 -14.81L-13.68 -9.15C-13.68 -7.82 -13.7 -6.67 -13.74 -5.67C-13.77 -4.68 -13.82 -3.83 -13.88 -3.11C-13.93 -2.39 -14 -1.79 -14.09 -1.31C-14.17 -0.83 -14.26 -0.42 -14.36 -0.09L-14.36 0L-8.95 0L-8.95 -0.09C-9.04 -0.42 -9.13 -0.83 -9.21 -1.31C-9.29 -1.79 -9.36 -2.39 -9.42 -3.11C-9.48 -3.83 -9.53 -4.68 -9.56 -5.67C-9.59 -6.67 -9.61 -7.82 -9.61 -9.15L-9.61 -14.81L-9.56 -17.88C-8.98 -18.41 -8.37 -18.91 -7.71 -19.38C-7.06 -19.84 -6.4 -20.25 -5.74 -20.6C-5.09 -20.95 -4.45 -21.24 -3.83 -21.45C-3.2 -21.66 -2.64 -21.76 -2.14 -21.76C-0.75 -21.76 0.35 -21.28 1.18 -20.31C2.01 -19.34 2.42 -17.83 2.42 -15.77Z M15.74 -23.96L9.61 -23.96L9.61 -23.87C9.68 -23.77 9.83 -23.56 10.05 -23.22C10.27 -22.89 10.52 -22.47 10.81 -21.97C11.1 -21.47 11.4 -20.91 11.72 -20.28C12.04 -19.64 12.34 -18.99 12.62 -18.3L20.63 0.33L22.01 0.33L30.64 -19.45C31.13 -20.58 31.58 -21.53 32.01 -22.29C32.44 -23.05 32.8 -23.57 33.08 -23.87L33.08 -23.96L28.86 -23.96L28.86 -23.87C28.89 -23.82 28.93 -23.73 28.96 -23.6C28.99 -23.47 29 -23.3 29 -23.1C29 -22.39 28.87 -21.7 28.61 -21.01C28.34 -20.33 28.09 -19.7 27.86 -19.12L22.19 -5.99L16.6 -19.31C16.24 -20.18 15.99 -20.91 15.85 -21.49C15.71 -22.08 15.64 -22.61 15.64 -23.1C15.64 -23.22 15.65 -23.36 15.67 -23.52C15.68 -23.67 15.71 -23.79 15.74 -23.87Z M34.48 -6.9C34.48 -4.56 35.22 -2.76 36.7 -1.49C38.18 -0.21 40.28 0.42 43 0.42C43.82 0.42 44.58 0.35 45.28 0.2C45.97 0.05 46.61 -0.14 47.17 -0.39C47.74 -0.63 48.25 -0.9 48.7 -1.19C49.14 -1.49 49.53 -1.78 49.85 -2.06C49.82 -1.62 49.79 -1.25 49.75 -0.94C49.71 -0.62 49.65 -0.34 49.57 -0.09L49.57 0L54.74 0L54.74 -0.09C54.65 -0.42 54.56 -0.83 54.48 -1.31C54.39 -1.79 54.32 -2.39 54.26 -3.11C54.21 -3.83 54.16 -4.68 54.12 -5.67C54.09 -6.67 54.07 -7.82 54.07 -9.15L54.07 -16.78C54.07 -17.84 53.89 -18.83 53.55 -19.76C53.21 -20.69 52.67 -21.5 51.92 -22.19C51.18 -22.89 50.23 -23.44 49.07 -23.83C47.91 -24.23 46.51 -24.43 44.87 -24.43C44.28 -24.43 43.71 -24.41 43.17 -24.37C42.63 -24.33 42.11 -24.27 41.59 -24.17C41.08 -24.08 40.57 -23.96 40.07 -23.81C39.57 -23.66 39.07 -23.47 38.55 -23.24L36.96 -19.94L37.19 -19.8C37.94 -20.37 38.64 -20.85 39.29 -21.22C39.94 -21.6 40.55 -21.89 41.14 -22.11C41.72 -22.33 42.29 -22.49 42.83 -22.58C43.38 -22.67 43.93 -22.72 44.5 -22.72C45.31 -22.72 46.05 -22.6 46.73 -22.36C47.41 -22.12 47.99 -21.75 48.47 -21.26C48.96 -20.77 49.33 -20.15 49.6 -19.4C49.86 -18.65 49.99 -17.76 49.99 -16.73L49.99 -15.54C49.06 -15.52 48.03 -15.47 46.91 -15.39C45.78 -15.3 44.64 -15.14 43.49 -14.92C42.33 -14.69 41.22 -14.38 40.14 -13.98C39.07 -13.58 38.11 -13.07 37.26 -12.43C36.42 -11.79 35.75 -11.01 35.24 -10.11C34.73 -9.2 34.48 -8.14 34.48 -6.9ZM49.99 -13.71L49.99 -9.15L49.99 -6.68C49.99 -5.96 49.98 -5.3 49.95 -4.7C49.78 -4.34 49.53 -3.97 49.2 -3.59C48.87 -3.21 48.47 -2.86 47.99 -2.54C47.52 -2.22 46.97 -1.95 46.36 -1.74C45.74 -1.53 45.06 -1.43 44.31 -1.43C42.69 -1.43 41.41 -1.91 40.49 -2.88C39.57 -3.85 39.11 -5.25 39.11 -7.09C39.11 -8.53 39.41 -9.68 40.01 -10.54C40.61 -11.41 41.42 -12.07 42.42 -12.54C43.43 -13.01 44.59 -13.32 45.9 -13.47C47.21 -13.61 48.57 -13.7 49.99 -13.71Z M71.71 -19.26L71.48 -23.14C71.02 -23.39 70.36 -23.65 69.5 -23.93C68.63 -24.2 67.55 -24.34 66.26 -24.34C65.27 -24.34 64.37 -24.19 63.54 -23.89C62.72 -23.6 62 -23.18 61.4 -22.64C60.8 -22.1 60.33 -21.45 60 -20.7C59.66 -19.94 59.49 -19.11 59.49 -18.21C59.49 -17.1 59.72 -16.11 60.18 -15.25C60.65 -14.38 61.23 -13.58 61.93 -12.86C62.63 -12.13 63.38 -11.45 64.19 -10.81C64.99 -10.17 65.74 -9.53 66.44 -8.89C67.15 -8.25 67.73 -7.59 68.19 -6.89C68.65 -6.2 68.88 -5.44 68.88 -4.61C68.88 -3.58 68.54 -2.75 67.86 -2.11C67.18 -1.47 66.26 -1.15 65.11 -1.15C64.41 -1.15 63.76 -1.27 63.17 -1.51C62.58 -1.75 62.05 -2.09 61.59 -2.52C61.13 -2.94 60.74 -3.46 60.43 -4.07C60.12 -4.68 59.88 -5.35 59.73 -6.08L59.35 -6.08L59.12 -1.64C59.45 -1.4 59.83 -1.16 60.26 -0.9C60.68 -0.64 61.17 -0.41 61.71 -0.2C62.24 0.01 62.84 0.19 63.48 0.33C64.13 0.47 64.83 0.54 65.58 0.54C66.84 0.54 67.93 0.35 68.84 -0.01C69.76 -0.38 70.5 -0.86 71.09 -1.45C71.67 -2.04 72.11 -2.72 72.39 -3.47C72.67 -4.23 72.81 -5.01 72.81 -5.8C72.81 -6.79 72.57 -7.7 72.1 -8.55C71.62 -9.4 71.02 -10.2 70.31 -10.95C69.59 -11.7 68.81 -12.42 67.98 -13.1C67.14 -13.79 66.37 -14.47 65.65 -15.15C64.93 -15.83 64.33 -16.52 63.86 -17.21C63.38 -17.9 63.14 -18.63 63.14 -19.4C63.14 -19.94 63.24 -20.42 63.43 -20.83C63.61 -21.23 63.87 -21.57 64.19 -21.84C64.51 -22.12 64.88 -22.32 65.31 -22.46C65.74 -22.6 66.19 -22.67 66.68 -22.67C67.38 -22.67 68 -22.56 68.54 -22.34C69.08 -22.11 69.54 -21.82 69.92 -21.48C70.3 -21.14 70.61 -20.76 70.86 -20.36C71.1 -19.95 71.27 -19.57 71.38 -19.21Z"></path></g><g id="SvgjsG72498" class="text" transform="translate(211.8531759339261, 43.62886004098545) scale(1 1)" light-content="false" fill="#ff9831"><path d="M-95.89 -0.09L-95.89 0L-91.21 0C-91.26 -0.25 -91.31 -0.54 -91.35 -0.87C-91.38 -1.15 -91.42 -1.49 -91.45 -1.9C-91.48 -2.3 -91.49 -2.77 -91.49 -3.3C-91.49 -3.72 -91.46 -4.37 -91.38 -5.25C-91.3 -6.13 -91.19 -7.15 -91.06 -8.31C-90.93 -9.46 -90.78 -10.71 -90.6 -12.04C-90.43 -13.37 -90.26 -14.71 -90.09 -16.05C-89.68 -19.19 -89.21 -22.6 -88.66 -26.3L-74.76 -0.28L-73.15 -0.09L-59.34 -26.07L-56.37 -3.65C-56.34 -3.4 -56.32 -3.17 -56.3 -2.96C-56.28 -2.75 -56.28 -2.54 -56.28 -2.34C-56.28 -1.79 -56.31 -1.33 -56.38 -0.94C-56.45 -0.55 -56.53 -0.27 -56.6 -0.09L-56.6 0L-50.71 0L-50.71 -0.09C-50.82 -0.28 -50.93 -0.52 -51.05 -0.81C-51.16 -1.1 -51.29 -1.46 -51.41 -1.91C-51.53 -2.35 -51.66 -2.89 -51.78 -3.51C-51.91 -4.13 -52.03 -4.88 -52.14 -5.76L-55.97 -33.56L-58.2 -33.56L-72.8 -6.04L-87.52 -33.56L-90.49 -33.56C-90.53 -33.12 -90.61 -32.47 -90.71 -31.6C-90.81 -30.74 -90.94 -29.72 -91.1 -28.55C-91.25 -27.38 -91.43 -26.09 -91.62 -24.68C-91.82 -23.26 -92.02 -21.8 -92.23 -20.28C-92.44 -18.76 -92.66 -17.21 -92.89 -15.64C-93.11 -14.08 -93.34 -12.54 -93.57 -11.04C-93.79 -9.55 -94.01 -8.12 -94.22 -6.75C-94.43 -5.39 -94.62 -4.16 -94.79 -3.07C-94.92 -2.32 -95.09 -1.7 -95.31 -1.21C-95.53 -0.71 -95.72 -0.34 -95.89 -0.09Z M-47.06 -6.9C-47.06 -4.56 -46.32 -2.76 -44.83 -1.49C-43.35 -0.21 -41.25 0.42 -38.54 0.42C-37.71 0.42 -36.95 0.35 -36.26 0.2C-35.56 0.05 -34.93 -0.14 -34.36 -0.39C-33.79 -0.63 -33.29 -0.9 -32.84 -1.19C-32.4 -1.49 -32.01 -1.78 -31.68 -2.06C-31.71 -1.62 -31.75 -1.25 -31.79 -0.94C-31.83 -0.62 -31.89 -0.34 -31.96 -0.09L-31.96 0L-26.79 0L-26.79 -0.09C-26.89 -0.42 -26.98 -0.83 -27.06 -1.31C-27.15 -1.79 -27.22 -2.39 -27.27 -3.11C-27.33 -3.83 -27.37 -4.68 -27.41 -5.67C-27.45 -6.67 -27.47 -7.82 -27.47 -9.15L-27.47 -16.78C-27.47 -17.84 -27.64 -18.83 -27.99 -19.76C-28.33 -20.69 -28.87 -21.5 -29.61 -22.19C-30.35 -22.89 -31.31 -23.44 -32.47 -23.83C-33.63 -24.23 -35.03 -24.43 -36.67 -24.43C-37.26 -24.43 -37.83 -24.41 -38.36 -24.37C-38.9 -24.33 -39.43 -24.27 -39.94 -24.17C-40.46 -24.08 -40.97 -23.96 -41.46 -23.81C-41.96 -23.66 -42.47 -23.47 -42.99 -23.24L-44.58 -19.94L-44.34 -19.8C-43.59 -20.37 -42.9 -20.85 -42.25 -21.22C-41.6 -21.6 -40.99 -21.89 -40.4 -22.11C-39.82 -22.33 -39.25 -22.49 -38.7 -22.58C-38.16 -22.67 -37.6 -22.72 -37.04 -22.72C-36.23 -22.72 -35.49 -22.6 -34.81 -22.36C-34.13 -22.12 -33.55 -21.75 -33.06 -21.26C-32.58 -20.77 -32.21 -20.15 -31.94 -19.4C-31.68 -18.65 -31.54 -17.76 -31.54 -16.73L-31.54 -15.54C-32.48 -15.52 -33.51 -15.47 -34.63 -15.39C-35.76 -15.3 -36.89 -15.14 -38.05 -14.92C-39.2 -14.69 -40.32 -14.38 -41.39 -13.98C-42.47 -13.58 -43.43 -13.07 -44.27 -12.43C-45.12 -11.79 -45.79 -11.01 -46.3 -10.11C-46.8 -9.2 -47.06 -8.14 -47.06 -6.9ZM-31.54 -13.71L-31.54 -9.15L-31.54 -6.68C-31.54 -5.96 -31.56 -5.3 -31.59 -4.7C-31.76 -4.34 -32.01 -3.97 -32.34 -3.59C-32.67 -3.21 -33.07 -2.86 -33.54 -2.54C-34.02 -2.22 -34.57 -1.95 -35.18 -1.74C-35.8 -1.53 -36.48 -1.43 -37.23 -1.43C-38.85 -1.43 -40.12 -1.91 -41.04 -2.88C-41.96 -3.85 -42.42 -5.25 -42.42 -7.09C-42.42 -8.53 -42.12 -9.68 -41.52 -10.54C-40.92 -11.41 -40.12 -12.07 -39.11 -12.54C-38.11 -13.01 -36.95 -13.32 -35.64 -13.47C-34.33 -13.61 -32.96 -13.7 -31.54 -13.71Z M-20.4 -25.83L-20.4 -9.15C-20.4 -7.82 -20.42 -6.67 -20.46 -5.67C-20.5 -4.68 -20.55 -3.83 -20.6 -3.11C-20.66 -2.39 -20.73 -1.79 -20.81 -1.31C-20.9 -0.83 -20.99 -0.42 -21.08 -0.09L-21.08 0L-15.68 0L-15.68 -0.09C-15.77 -0.42 -15.86 -0.83 -15.94 -1.31C-16.01 -1.79 -16.08 -2.39 -16.15 -3.11C-16.21 -3.83 -16.26 -4.68 -16.29 -5.67C-16.32 -6.67 -16.33 -7.82 -16.33 -9.15L-16.33 -12.94L-7.91 -2.93C-7.36 -2.25 -6.98 -1.7 -6.77 -1.26C-6.56 -0.83 -6.46 -0.41 -6.46 0L0.33 0L0.33 -0.09C0.06 -0.16 -0.23 -0.3 -0.54 -0.51C-0.85 -0.73 -1.17 -0.99 -1.5 -1.29C-1.83 -1.58 -2.15 -1.91 -2.48 -2.26C-2.81 -2.61 -3.11 -2.96 -3.39 -3.3L-12.8 -14.41L-5.94 -20.66C-5.48 -21.08 -5.04 -21.46 -4.64 -21.8C-4.25 -22.13 -3.86 -22.43 -3.5 -22.7C-3.13 -22.96 -2.77 -23.19 -2.4 -23.39C-2.03 -23.58 -1.65 -23.74 -1.24 -23.87L-1.24 -23.96L-6.67 -23.96C-6.67 -23.18 -7.34 -22.21 -8.68 -21.04L-16.33 -14.18L-16.33 -25.83C-16.33 -27.16 -16.32 -28.32 -16.29 -29.31C-16.26 -30.3 -16.21 -31.15 -16.15 -31.87C-16.08 -32.59 -16.01 -33.19 -15.94 -33.67C-15.86 -34.16 -15.77 -34.56 -15.68 -34.89L-15.68 -34.98L-21.08 -34.98L-21.08 -34.89C-20.99 -34.56 -20.9 -34.16 -20.81 -33.67C-20.73 -33.19 -20.66 -32.59 -20.6 -31.87C-20.55 -31.15 -20.5 -30.3 -20.46 -29.31C-20.42 -28.32 -20.4 -27.16 -20.4 -25.83Z M12.89 0.42C14.53 0.42 15.94 0.27 17.11 -0.04C18.28 -0.34 19.28 -0.71 20.12 -1.15L21.86 -5.31L21.57 -5.45C21.22 -4.86 20.78 -4.31 20.26 -3.8C19.75 -3.3 19.16 -2.85 18.51 -2.48C17.85 -2.11 17.12 -1.81 16.32 -1.6C15.52 -1.39 14.66 -1.29 13.76 -1.29C12.45 -1.29 11.27 -1.54 10.24 -2.04C9.2 -2.54 8.32 -3.25 7.59 -4.18C6.87 -5.11 6.3 -6.22 5.89 -7.53C5.47 -8.85 5.22 -10.31 5.12 -11.93C6.15 -11.97 7.31 -11.99 8.6 -12C9.89 -12.02 11.21 -12.03 12.57 -12.03C14.47 -12.03 16.3 -12.02 18.06 -12C19.83 -11.99 21.59 -11.97 23.35 -11.93C23.31 -13.92 22.99 -15.68 22.41 -17.23C21.82 -18.79 21.02 -20.09 20.02 -21.14C19.01 -22.19 17.82 -23 16.45 -23.55C15.08 -24.11 13.59 -24.38 11.98 -24.38C10.36 -24.38 8.85 -24.07 7.45 -23.45C6.06 -22.82 4.84 -21.96 3.79 -20.85C2.75 -19.74 1.93 -18.44 1.33 -16.93C0.74 -15.42 0.44 -13.79 0.44 -12.03C0.44 -10.03 0.77 -8.26 1.42 -6.7C2.06 -5.15 2.95 -3.85 4.07 -2.8C5.19 -1.74 6.51 -0.94 8.03 -0.4C9.54 0.15 11.16 0.42 12.89 0.42ZM9.78 -13.85L7.35 -13.85C6.57 -13.85 5.83 -13.87 5.12 -13.9C5.19 -15.29 5.39 -16.52 5.73 -17.61C6.08 -18.69 6.53 -19.61 7.09 -20.36C7.65 -21.11 8.31 -21.68 9.07 -22.08C9.82 -22.48 10.65 -22.67 11.56 -22.67C12.56 -22.67 13.47 -22.47 14.3 -22.07C15.12 -21.66 15.84 -21.08 16.45 -20.33C17.06 -19.59 17.56 -18.67 17.95 -17.6C18.34 -16.52 18.6 -15.3 18.74 -13.95C17.46 -13.9 16.04 -13.87 14.47 -13.86C12.91 -13.86 11.34 -13.85 9.78 -13.85Z M26.47 -0.09L26.47 0L31.15 0C31.1 -0.25 31.05 -0.54 31.01 -0.87C30.97 -1.15 30.94 -1.49 30.91 -1.9C30.88 -2.3 30.86 -2.77 30.86 -3.3C30.86 -3.72 30.9 -4.37 30.98 -5.25C31.06 -6.13 31.16 -7.15 31.3 -8.31C31.43 -9.46 31.58 -10.71 31.75 -12.04C31.93 -13.37 32.1 -14.71 32.27 -16.05C32.67 -19.19 33.15 -22.6 33.7 -26.3L47.6 -0.28L49.21 -0.09L63.02 -26.07L65.99 -3.65C66.02 -3.4 66.04 -3.17 66.06 -2.96C66.07 -2.75 66.08 -2.54 66.08 -2.34C66.08 -1.79 66.05 -1.33 65.98 -0.94C65.91 -0.55 65.83 -0.27 65.75 -0.09L65.75 0L71.65 0L71.65 -0.09C71.54 -0.28 71.43 -0.52 71.31 -0.81C71.19 -1.1 71.07 -1.46 70.95 -1.91C70.83 -2.35 70.7 -2.89 70.57 -3.51C70.45 -4.13 70.33 -4.88 70.22 -5.76L66.39 -33.56L64.16 -33.56L49.56 -6.04L34.84 -33.56L31.87 -33.56C31.82 -33.12 31.75 -32.47 31.65 -31.6C31.55 -30.74 31.42 -29.72 31.26 -28.55C31.11 -27.38 30.93 -26.09 30.74 -24.68C30.54 -23.26 30.34 -21.8 30.13 -20.28C29.92 -18.76 29.7 -17.21 29.47 -15.64C29.25 -14.08 29.02 -12.54 28.79 -11.04C28.57 -9.55 28.35 -8.12 28.14 -6.75C27.93 -5.39 27.74 -4.16 27.57 -3.07C27.44 -2.32 27.27 -1.7 27.05 -1.21C26.83 -0.71 26.64 -0.34 26.47 -0.09Z M84.68 -0.28L81.39 7.53C80.9 8.66 80.45 9.59 80.02 10.33C79.59 11.07 79.22 11.59 78.93 11.89L78.93 11.98L83.3 11.98L83.3 11.89C83.27 11.84 83.24 11.75 83.21 11.62C83.18 11.49 83.16 11.32 83.16 11.12C83.16 10.41 83.29 9.72 83.55 9.03C83.81 8.35 84.06 7.71 84.31 7.14L95.47 -19.45C95.96 -20.58 96.41 -21.53 96.84 -22.29C97.27 -23.05 97.62 -23.57 97.91 -23.87L97.91 -23.96L93.69 -23.96L93.69 -23.87C93.72 -23.82 93.76 -23.73 93.79 -23.6C93.82 -23.47 93.83 -23.3 93.83 -23.1C93.83 -22.39 93.71 -21.7 93.45 -21.01C93.19 -20.33 92.94 -19.7 92.69 -19.12L86.79 -5.27L80.33 -19.31C79.93 -20.18 79.65 -20.91 79.5 -21.49C79.35 -22.08 79.28 -22.61 79.28 -23.1C79.28 -23.22 79.29 -23.36 79.3 -23.52C79.32 -23.67 79.34 -23.79 79.37 -23.87L79.37 -23.96L73.24 -23.96L73.24 -23.87C73.32 -23.77 73.48 -23.56 73.71 -23.22C73.94 -22.89 74.21 -22.47 74.52 -21.97C74.82 -21.47 75.15 -20.91 75.49 -20.28C75.83 -19.64 76.15 -18.99 76.45 -18.3Z"></path></g></g></g></svg>